<svg xmlns="http://www.w3.org/2000/svg" viewBox="0 0 266 64" role="img" aria-label="clarifier — by Agent James"><g transform="translate(4,4) scale(0.87)"><path d="M9 12 H55 L45 54 H19 Z" fill="none" stroke="#1A1712" stroke-width="3.008"/><rect x="26" y="45" width="6" height="6" fill="#1A1712"/><rect x="33" y="47" width="6" height="6" fill="#1A1712"/><rect x="29" y="39" width="6" height="6" fill="#1A1712"/><path d="M21 37 H43" fill="none" stroke="#1A1712" stroke-width="1.984"/><path d="M15 27 L20 32 L25 25 L30 31 L35 24 L40 30 L45 25 L49 29" fill="none" stroke="#1A1712" stroke-width="1.984"/><rect x="10" y="15" width="44" height="6" fill="#B45309"/></g><rect x="87.20" y="36.40" width="3.2" height="3.2" fill="#1A1712"/><rect x="90.40" y="36.40" width="3.2" height="3.2" fill="#1A1712"/><rect x="93.60" y="36.40" width="3.2" height="3.2" fill="#1A1712"/><rect x="96.80" y="36.40" width="3.2" height="3.2" fill="#1A1712"/><rect x="84.00" y="39.60" width="3.2" height="3.2" fill="#1A1712"/><rect x="84.00" y="42.80" width="3.2" height="3.2" fill="#1A1712"/><rect x="84.00" y="46.00" width="3.2" height="3.2" fill="#1A1712"/><rect x="87.20" y="49.20" width="3.2" height="3.2" fill="#1A1712"/><rect x="90.40" y="49.20" width="3.2" height="3.2" fill="#1A1712"/><rect x="93.60" y="49.20" width="3.2" height="3.2" fill="#1A1712"/><rect x="96.80" y="49.20" width="3.2" height="3.2" fill="#1A1712"/><rect x="106.40" y="30.00" width="3.2" height="3.2" fill="#1A1712"/><rect x="109.60" y="30.00" width="3.2" height="3.2" fill="#1A1712"/><rect x="109.60" y="33.20" width="3.2" height="3.2" fill="#1A1712"/><rect x="109.60" y="36.40" width="3.2" height="3.2" fill="#1A1712"/><rect x="109.60" y="39.60" width="3.2" height="3.2" fill="#1A1712"/><rect x="109.60" y="42.80" width="3.2" height="3.2" fill="#1A1712"/><rect x="109.60" y="46.00" width="3.2" height="3.2" fill="#1A1712"/><rect x="106.40" y="49.20" width="3.2" height="3.2" fill="#1A1712"/><rect x="109.60" y="49.20" width="3.2" height="3.2" fill="#1A1712"/><rect x="112.80" y="49.20" width="3.2" height="3.2" fill="#1A1712"/><rect x="125.60" y="36.40" width="3.2" height="3.2" fill="#1A1712"/><rect x="128.80" y="36.40" width="3.2" height="3.2" fill="#1A1712"/><rect x="132.00" y="36.40" width="3.2" height="3.2" fill="#1A1712"/><rect x="135.20" y="39.60" width="3.2" height="3.2" fill="#1A1712"/><rect x="125.60" y="42.80" width="3.2" height="3.2" fill="#1A1712"/><rect x="128.80" y="42.80" width="3.2" height="3.2" fill="#1A1712"/><rect x="132.00" y="42.80" width="3.2" height="3.2" fill="#1A1712"/><rect x="135.20" y="42.80" width="3.2" height="3.2" fill="#1A1712"/><rect x="122.40" y="46.00" width="3.2" height="3.2" fill="#1A1712"/><rect x="135.20" y="46.00" width="3.2" height="3.2" fill="#1A1712"/><rect x="125.60" y="49.20" width="3.2" height="3.2" fill="#1A1712"/><rect x="128.80" y="49.20" width="3.2" height="3.2" fill="#1A1712"/><rect x="132.00" y="49.20" width="3.2" height="3.2" fill="#1A1712"/><rect x="135.20" y="49.20" width="3.2" height="3.2" fill="#1A1712"/><rect x="141.60" y="36.40" width="3.2" height="3.2" fill="#1A1712"/><rect x="148.00" y="36.40" width="3.2" height="3.2" fill="#1A1712"/><rect x="151.20" y="36.40" width="3.2" height="3.2" fill="#1A1712"/><rect x="141.60" y="39.60" width="3.2" height="3.2" fill="#1A1712"/><rect x="144.80" y="39.60" width="3.2" height="3.2" fill="#1A1712"/><rect x="154.40" y="39.60" width="3.2" height="3.2" fill="#1A1712"/><rect x="141.60" y="42.80" width="3.2" height="3.2" fill="#1A1712"/><rect x="141.60" y="46.00" width="3.2" height="3.2" fill="#1A1712"/><rect x="141.60" y="49.20" width="3.2" height="3.2" fill="#1A1712"/><rect x="167.20" y="30.00" width="3.2" height="3.2" fill="#1A1712"/><rect x="164.00" y="36.40" width="3.2" height="3.2" fill="#1A1712"/><rect x="167.20" y="36.40" width="3.2" height="3.2" fill="#1A1712"/><rect x="167.20" y="39.60" width="3.2" height="3.2" fill="#1A1712"/><rect x="167.20" y="42.80" width="3.2" height="3.2" fill="#1A1712"/><rect x="167.20" y="46.00" width="3.2" height="3.2" fill="#1A1712"/><rect x="164.00" y="49.20" width="3.2" height="3.2" fill="#1A1712"/><rect x="167.20" y="49.20" width="3.2" height="3.2" fill="#1A1712"/><rect x="170.40" y="49.20" width="3.2" height="3.2" fill="#1A1712"/><rect x="186.40" y="30.00" width="3.2" height="3.2" fill="#1A1712"/><rect x="189.60" y="30.00" width="3.2" height="3.2" fill="#1A1712"/><rect x="183.20" y="33.20" width="3.2" height="3.2" fill="#1A1712"/><rect x="192.80" y="33.20" width="3.2" height="3.2" fill="#1A1712"/><rect x="183.20" y="36.40" width="3.2" height="3.2" fill="#1A1712"/><rect x="180.00" y="39.60" width="3.2" height="3.2" fill="#1A1712"/><rect x="183.20" y="39.60" width="3.2" height="3.2" fill="#1A1712"/><rect x="186.40" y="39.60" width="3.2" height="3.2" fill="#1A1712"/><rect x="183.20" y="42.80" width="3.2" height="3.2" fill="#1A1712"/><rect x="183.20" y="46.00" width="3.2" height="3.2" fill="#1A1712"/><rect x="183.20" y="49.20" width="3.2" height="3.2" fill="#1A1712"/><rect x="205.60" y="30.00" width="3.2" height="3.2" fill="#1A1712"/><rect x="202.40" y="36.40" width="3.2" height="3.2" fill="#1A1712"/><rect x="205.60" y="36.40" width="3.2" height="3.2" fill="#1A1712"/><rect x="205.60" y="39.60" width="3.2" height="3.2" fill="#1A1712"/><rect x="205.60" y="42.80" width="3.2" height="3.2" fill="#1A1712"/><rect x="205.60" y="46.00" width="3.2" height="3.2" fill="#1A1712"/><rect x="202.40" y="49.20" width="3.2" height="3.2" fill="#1A1712"/><rect x="205.60" y="49.20" width="3.2" height="3.2" fill="#1A1712"/><rect x="208.80" y="49.20" width="3.2" height="3.2" fill="#1A1712"/><rect x="221.60" y="36.40" width="3.2" height="3.2" fill="#1A1712"/><rect x="224.80" y="36.40" width="3.2" height="3.2" fill="#1A1712"/><rect x="228.00" y="36.40" width="3.2" height="3.2" fill="#1A1712"/><rect x="218.40" y="39.60" width="3.2" height="3.2" fill="#1A1712"/><rect x="231.20" y="39.60" width="3.2" height="3.2" fill="#1A1712"/><rect x="218.40" y="42.80" width="3.2" height="3.2" fill="#1A1712"/><rect x="221.60" y="42.80" width="3.2" height="3.2" fill="#1A1712"/><rect x="224.80" y="42.80" width="3.2" height="3.2" fill="#1A1712"/><rect x="228.00" y="42.80" width="3.2" height="3.2" fill="#1A1712"/><rect x="231.20" y="42.80" width="3.2" height="3.2" fill="#1A1712"/><rect x="218.40" y="46.00" width="3.2" height="3.2" fill="#1A1712"/><rect x="221.60" y="49.20" width="3.2" height="3.2" fill="#1A1712"/><rect x="224.80" y="49.20" width="3.2" height="3.2" fill="#1A1712"/><rect x="228.00" y="49.20" width="3.2" height="3.2" fill="#1A1712"/><rect x="237.60" y="36.40" width="3.2" height="3.2" fill="#1A1712"/><rect x="244.00" y="36.40" width="3.2" height="3.2" fill="#1A1712"/><rect x="247.20" y="36.40" width="3.2" height="3.2" fill="#1A1712"/><rect x="237.60" y="39.60" width="3.2" height="3.2" fill="#1A1712"/><rect x="240.80" y="39.60" width="3.2" height="3.2" fill="#1A1712"/><rect x="250.40" y="39.60" width="3.2" height="3.2" fill="#1A1712"/><rect x="237.60" y="42.80" width="3.2" height="3.2" fill="#1A1712"/><rect x="237.60" y="46.00" width="3.2" height="3.2" fill="#1A1712"/><rect x="237.60" y="49.20" width="3.2" height="3.2" fill="#1A1712"/><rect x="256.00" y="24" width="5.12" height="22.4" fill="#B45309"/></svg>
